<svg xmlns="http://www.w3.org/2000/svg" width="3240" height="2304" viewBox="0 0 3240 2304"><style>text{font-family:DejaVu Sans,sans-serif}</style><rect x="0" y="0" width="3240" height="2304" fill="#f7f6f1" stroke="none" stroke-width="2"/><text x="108" y="107" font-size="42" fill="#223740" font-weight="bold" text-anchor="start" letter-spacing="11">SABLE HARBOR</text><text x="3133" y="102" font-size="28" fill="#223740" font-weight="normal" text-anchor="end">THE FORT · WILLOW RESEARCH COMPOUND / FACILITY STUDY</text><path d="M107,149 L3135,149" fill="none" stroke="#223740" stroke-width="3"/><text x="108" y="249" font-size="62.5" fill="#223740" font-weight="bold" text-anchor="start">THE FORT · WILLOW RESEARCH COMPOUND</text><text x="108" y="313" font-size="31" fill="#687b80" font-weight="normal" text-anchor="start">Operating context and local planning envelope  •  Reference north is up</text><rect x="2645" y="203" width="489" height="64" fill="#223740" stroke="none" stroke-width="2"/><text x="2890" y="241" font-size="26" fill="white" font-weight="bold" text-anchor="middle">CONCEPT REVIEW / R02</text><path d="M107,2147 L3135,2147" fill="none" stroke="#223740" stroke-width="3"/><text x="108" y="2205" font-size="24" fill="#687b80" font-weight="normal" text-anchor="start">COORDINATED DESIGN STUDY  •  11 SEPTEMBER 2026</text><text x="108" y="2248" font-size="23" fill="#687b80" font-weight="normal" text-anchor="start">Concept geometry; parcel, engineering and code review remain open. Areas and seats are design proposals.</text><text x="3133" y="2216" font-size="44" fill="#223740" font-weight="bold" text-anchor="end">SH-MAP-WIL-020</text><text x="3133" y="2267" font-size="22" fill="#687b80" font-weight="normal" text-anchor="end">MASTER PLAN / R02</text><rect x="120" y="427" width="1679.01" height="1632" fill="#ebeee6" stroke="#223740" stroke-width="3"/><rect x="287.901" y="1857.52" width="369.383" height="100.741" fill="#e7e9e5" stroke="#a7b5ae" stroke-width="1.5"/><text x="472.593" y="1907.89" font-size="22.163" fill="#687b80" font-weight="bold" text-anchor="middle">ARRIVAL / GATE</text><rect x="321.481" y="1353.81" width="268.642" height="201.481" fill="#e7e9e5" stroke="#a7b5ae" stroke-width="1.5"/><text x="455.802" y="1439.56" font-size="25" fill="#687b80" font-weight="bold" text-anchor="middle">PARKING · 30</text><text x="455.802" y="1469.56" font-size="25" fill="#687b80" font-weight="bold" text-anchor="middle">SPACES</text><rect x="690.864" y="1622.46" width="436.543" height="134.321" fill="#e5ece5" stroke="#a7b5ae" stroke-width="1.5"/><text x="909.136" y="1689.62" font-size="25" fill="#687b80" font-weight="bold" text-anchor="middle">CLEAN PEDESTRIAN COURT</text><rect x="690.864" y="1320.23" width="503.704" height="214.914" fill="#e7e9e5" stroke="#a7b5ae" stroke-width="1.5"/><text x="942.716" y="1412.69" font-size="25" fill="#687b80" font-weight="bold" text-anchor="middle">RESEARCH HARDSTAND AND</text><text x="942.716" y="1442.69" font-size="25" fill="#687b80" font-weight="bold" text-anchor="middle">STAGING</text><rect x="321.481" y="648.63" width="436.543" height="268.642" fill="#e7e9e5" stroke="#a7b5ae" stroke-width="1.5"/><text x="539.753" y="767.951" font-size="25" fill="#687b80" font-weight="bold" text-anchor="middle">THE MUSEUM · WORKING</text><text x="539.753" y="797.951" font-size="25" fill="#687b80" font-weight="bold" text-anchor="middle">OUTDOOR COLLECTION</text><rect x="1228.15" y="715.79" width="335.802" height="235.062" fill="#e7e9e5" stroke="#a7b5ae" stroke-width="1.5"/><text x="1396.05" y="818.321" font-size="25" fill="#687b80" font-weight="bold" text-anchor="middle">SERVICE YARD AND</text><text x="1396.05" y="848.321" font-size="25" fill="#687b80" font-weight="bold" text-anchor="middle">UTILITIES</text><rect x="858.765" y="615.049" width="268.642" height="235.062" fill="#e7e9e5" stroke="#a7b5ae" stroke-width="1.5"/><text x="993.086" y="702.58" font-size="25" fill="#687b80" font-weight="bold" text-anchor="middle">GATED</text><text x="993.086" y="732.58" font-size="25" fill="#687b80" font-weight="bold" text-anchor="middle">EXPANSION</text><text x="993.086" y="762.58" font-size="25" fill="#687b80" font-weight="bold" text-anchor="middle">RESERVE</text><rect x="321.481" y="514.309" width="1242.47" height="67.1605" fill="#e5ece5" stroke="#a7b5ae" stroke-width="1.5"/><text x="942.716" y="547.889" font-size="18" fill="#687b80" font-weight="bold" text-anchor="middle">STORMWATER BUFFER</text><path d="M220.741,1958.26 L1698.27,1958.26" fill="none" stroke="#bdc5c0" stroke-width="14"/><path d="M1698.27,1958.26 L1698.27,527.741" fill="none" stroke="#bdc5c0" stroke-width="14"/><path d="M1698.27,527.741 L220.741,527.741" fill="none" stroke="#bdc5c0" stroke-width="14"/><path d="M220.741,527.741 L220.741,1958.26" fill="none" stroke="#bdc5c0" stroke-width="14"/><path d="M455.802,2059 L455.802,1790.36" fill="none" stroke="#bdc5c0" stroke-width="14"/><path d="M603.556,1709.77 L637.136,1709.77" fill="none" stroke="#bdc5c0" stroke-width="14"/><path d="M637.136,1709.77 L637.136,1286.65" fill="none" stroke="#bdc5c0" stroke-width="14"/><path d="M637.136,1286.65 L858.765,1286.65" fill="none" stroke="#bdc5c0" stroke-width="14"/><path d="M858.765,1286.65 L858.765,1219.49" fill="none" stroke="#bdc5c0" stroke-width="14"/><path d="M1799.01,883.691 L1597.53,883.691" fill="none" stroke="#bdc5c0" stroke-width="14"/><path d="M1597.53,883.691 L1597.53,1286.65" fill="none" stroke="#bdc5c0" stroke-width="14"/><path d="M1597.53,1286.65 L1382.62,1286.65" fill="none" stroke="#bdc5c0" stroke-width="14"/><path d="M1382.62,1286.65 L1382.62,1219.49" fill="none" stroke="#bdc5c0" stroke-width="14"/><rect x="698.864" y="1026.01" width="402.963" height="201.481" fill="#cdd5cb" stroke="none" stroke-width="2"/><rect x="690.864" y="1018.01" width="402.963" height="201.481" fill="white" stroke="#729085" stroke-width="5"/><rect x="690.864" y="1018.01" width="21" height="201.481" fill="#729085" stroke="none" stroke-width="2"/><rect x="693.864" y="1021.01" width="70" height="35" fill="#223740" stroke="none" stroke-width="2"/><text x="698.864" y="1047.01" font-size="24" fill="white" font-weight="bold" text-anchor="start">BIG</text><text x="705.864" y="1088.01" font-size="24" fill="#223740" font-weight="normal" text-anchor="start">The Big Shed</text><rect x="363.062" y="1637.17" width="241.778" height="161.185" fill="#cdd5cb" stroke="none" stroke-width="2"/><rect x="355.062" y="1629.17" width="241.778" height="161.185" fill="white" stroke="#729085" stroke-width="5"/><rect x="355.062" y="1629.17" width="21" height="161.185" fill="#729085" stroke="none" stroke-width="2"/><rect x="358.062" y="1632.17" width="85" height="35" fill="#223740" stroke="none" stroke-width="2"/><text x="363.062" y="1658.17" font-size="24" fill="white" font-weight="bold" text-anchor="start">SMALL</text><text x="370.062" y="1699.17" font-size="24" fill="#223740" font-weight="normal" text-anchor="start">The Small Shed</text><rect x="1269.73" y="1066.31" width="241.778" height="161.185" fill="#cdd5cb" stroke="none" stroke-width="2"/><rect x="1261.73" y="1058.31" width="241.778" height="161.185" fill="white" stroke="#729085" stroke-width="5"/><rect x="1261.73" y="1058.31" width="21" height="161.185" fill="#729085" stroke="none" stroke-width="2"/><rect x="1264.73" y="1061.31" width="85" height="35" fill="#223740" stroke="none" stroke-width="2"/><text x="1269.73" y="1087.31" font-size="24" fill="white" font-weight="bold" text-anchor="start">WHITE</text><text x="1276.73" y="1128.31" font-size="24" fill="#223740" font-weight="normal" text-anchor="start">The White Shed</text><text x="2327" y="630" font-size="30" fill="#223740" font-weight="bold" text-anchor="middle">N</text><path d="M2327,665 l-14,45 l14,-13 l14,13 Z" fill="#223740" stroke="none" stroke-width="2"/><path d="M2483,396 L3133,396" fill="none" stroke="#a5b4b2" stroke-width="2"/><text x="2483" y="456" font-size="31" fill="#223740" font-weight="bold" text-anchor="start">SITE PROGRAM</text><text x="2483" y="540" font-size="27" fill="#223740" font-weight="bold" text-anchor="start">BIG / The Big Shed</text><text x="2483" y="583" font-size="26" fill="#687b80" font-weight="normal" text-anchor="start">1 levels; 1,800 m² concept gross area.</text><text x="2483" y="662" font-size="27" fill="#223740" font-weight="bold" text-anchor="start">SMALL / The Small Shed</text><text x="2483" y="705" font-size="26" fill="#687b80" font-weight="normal" text-anchor="start">2 levels; 1,728 m² concept gross area.</text><text x="2483" y="784" font-size="27" fill="#223740" font-weight="bold" text-anchor="start">WHITE / The White Shed</text><text x="2483" y="827" font-size="26" fill="#687b80" font-weight="normal" text-anchor="start">1 levels; 864 m² concept gross area.</text><text x="2483" y="906" font-size="28" fill="#223740" font-weight="bold" text-anchor="start">STATUS</text><text x="2483" y="949" font-size="26" fill="#687b80" font-weight="normal" text-anchor="start">PROPOSED MODELLED PROGRAM</text><text x="2483" y="1028" font-size="28" fill="#223740" font-weight="bold" text-anchor="start">PRECISION</text><text x="2483" y="1071" font-size="26" fill="#687b80" font-weight="normal" text-anchor="start">Local concept envelope, not a surveyed</text><text x="2483" y="1110" font-size="26" fill="#687b80" font-weight="normal" text-anchor="start">parcel or installed equipment record.</text><text x="2483" y="1189" font-size="28" fill="#223740" font-weight="bold" text-anchor="start">DEPENDENCIES</text><text x="2483" y="1232" font-size="26" fill="#687b80" font-weight="normal" text-anchor="start">Source geometry and actual access/tenure</text><text x="2483" y="1271" font-size="26" fill="#687b80" font-weight="normal" text-anchor="start">remain governed by the existing</text><text x="2483" y="1310" font-size="26" fill="#687b80" font-weight="normal" text-anchor="start">geographic register.</text><rect x="158" y="2088" width="102.353" height="14" fill="#223740" stroke="#223740" stroke-width="1.5"/><rect x="260.353" y="2088" width="102.353" height="14" fill="#f7f6f1" stroke="#223740" stroke-width="1.5"/><rect x="362.705" y="2088" width="102.353" height="14" fill="#223740" stroke="#223740" stroke-width="1.5"/><rect x="465.058" y="2088" width="102.353" height="14" fill="#f7f6f1" stroke="#223740" stroke-width="1.5"/><text x="158" y="2132" font-size="21" fill="#223740" font-weight="normal" text-anchor="middle">0</text><text x="362.705" y="2132" font-size="21" fill="#223740" font-weight="normal" text-anchor="middle">100</text><text x="567.41" y="2132" font-size="21" fill="#223740" font-weight="normal" text-anchor="middle">200</text><text x="597.41" y="2104" font-size="21" fill="#687b80" font-weight="normal" text-anchor="start">FEET</text><text x="900" y="2116" font-size="24" fill="#687b80" font-weight="normal" text-anchor="start">Planning envelope / Reference north / Geometry and tenure status remain separate</text><text x="2483" y="2050" font-size="18" fill="#687b80" font-weight="normal" text-anchor="start">SH-SITE-0003 / SH-MAP-WIL-020</text></svg>
