<svg xmlns="http://www.w3.org/2000/svg" width="3240" height="2304" viewBox="0 0 3240 2304"><style>text{font-family:DejaVu Sans,sans-serif}</style><rect x="0" y="0" width="3240" height="2304" fill="#f7f6f1" stroke="none" stroke-width="2"/><text x="108" y="107" font-size="42" fill="#223740" font-weight="bold" text-anchor="start" letter-spacing="11">SABLE HARBOR</text><text x="3133" y="102" font-size="28" fill="#223740" font-weight="normal" text-anchor="end">THE FORT · WILLOW RESEARCH COMPOUND / FACILITY STUDY</text><path d="M107,149 L3135,149" fill="none" stroke="#223740" stroke-width="3"/><text x="108" y="249" font-size="62.5" fill="#223740" font-weight="bold" text-anchor="start">THE SMALL SHED / LEVEL 02</text><text x="108" y="313" font-size="31" fill="#687b80" font-weight="normal" text-anchor="start">Six temporary guest rooms · no permanent housing  •  One floor shown  •  North is up</text><rect x="2645" y="203" width="489" height="64" fill="#223740" stroke="none" stroke-width="2"/><text x="2890" y="241" font-size="26" fill="white" font-weight="bold" text-anchor="middle">CONCEPT REVIEW / R02</text><path d="M107,2147 L3135,2147" fill="none" stroke="#223740" stroke-width="3"/><text x="108" y="2205" font-size="24" fill="#687b80" font-weight="normal" text-anchor="start">COORDINATED DESIGN STUDY  •  11 SEPTEMBER 2026</text><text x="108" y="2248" font-size="23" fill="#687b80" font-weight="normal" text-anchor="start">Concept geometry; parcel, engineering and code review remain open. Areas and seats are design proposals.</text><text x="3133" y="2216" font-size="44" fill="#223740" font-weight="bold" text-anchor="end">SH-MAP-WIL-025</text><text x="3133" y="2267" font-size="22" fill="#687b80" font-weight="normal" text-anchor="end">THE SMALL SHED / FLOOR PLAN / R02</text><text x="3133" y="287" font-size="18" fill="#687b80" font-weight="normal" text-anchor="end">SH-FAC-FORT-SMALL-L02  /  SH-MAP-WIL-025</text><rect x="133" y="577" width="1713" height="1142" fill="#e7e9e5" stroke="#223740" stroke-width="5"/><rect x="133" y="1362.12" width="285.5" height="356.875" fill="#e7e9e5" stroke="#223740" stroke-width="2"/><text x="145" y="1604.8" font-size="23" fill="#223740" font-weight="bold" text-anchor="start">WET / SERVICES</text><rect x="133" y="933.875" width="285.5" height="428.25" fill="#e7e9e5" stroke="#223740" stroke-width="2"/><path d="M181.535,968.875 L369.965,968.875" fill="none" stroke="#687b80" stroke-width="1.2"/><path d="M181.535,984.875 L369.965,984.875" fill="none" stroke="#687b80" stroke-width="1.2"/><path d="M181.535,1000.88 L369.965,1000.88" fill="none" stroke="#687b80" stroke-width="1.2"/><path d="M181.535,1016.88 L369.965,1016.88" fill="none" stroke="#687b80" stroke-width="1.2"/><path d="M181.535,1032.88 L369.965,1032.88" fill="none" stroke="#687b80" stroke-width="1.2"/><path d="M181.535,1048.88 L369.965,1048.88" fill="none" stroke="#687b80" stroke-width="1.2"/><path d="M181.535,1064.88 L369.965,1064.88" fill="none" stroke="#687b80" stroke-width="1.2"/><path d="M181.535,1080.88 L369.965,1080.88" fill="none" stroke="#687b80" stroke-width="1.2"/><path d="M181.535,1096.88 L369.965,1096.88" fill="none" stroke="#687b80" stroke-width="1.2"/><path d="M181.535,1112.88 L369.965,1112.88" fill="none" stroke="#687b80" stroke-width="1.2"/><path d="M181.535,1128.88 L369.965,1128.88" fill="none" stroke="#687b80" stroke-width="1.2"/><path d="M181.535,1144.88 L369.965,1144.88" fill="none" stroke="#687b80" stroke-width="1.2"/><text x="145" y="1225.09" font-size="23" fill="#223740" font-weight="bold" text-anchor="start">STAIR</text><rect x="133" y="577" width="285.5" height="356.875" fill="#e7e9e5" stroke="#223740" stroke-width="2"/><text x="145" y="819.675" font-size="23" fill="#223740" font-weight="bold" text-anchor="start">LIFT / SERVICE</text><rect x="1560.5" y="1362.12" width="285.5" height="356.875" fill="#e7e9e5" stroke="#223740" stroke-width="2"/><text x="1572.5" y="1604.8" font-size="23" fill="#223740" font-weight="bold" text-anchor="start">WET / SERVICES</text><rect x="1560.5" y="933.875" width="285.5" height="428.25" fill="#e7e9e5" stroke="#223740" stroke-width="2"/><path d="M1609.04,968.875 L1797.46,968.875" fill="none" stroke="#687b80" stroke-width="1.2"/><path d="M1609.04,984.875 L1797.46,984.875" fill="none" stroke="#687b80" stroke-width="1.2"/><path d="M1609.04,1000.88 L1797.46,1000.88" fill="none" stroke="#687b80" stroke-width="1.2"/><path d="M1609.04,1016.88 L1797.46,1016.88" fill="none" stroke="#687b80" stroke-width="1.2"/><path d="M1609.04,1032.88 L1797.46,1032.88" fill="none" stroke="#687b80" stroke-width="1.2"/><path d="M1609.04,1048.88 L1797.46,1048.88" fill="none" stroke="#687b80" stroke-width="1.2"/><path d="M1609.04,1064.88 L1797.46,1064.88" fill="none" stroke="#687b80" stroke-width="1.2"/><path d="M1609.04,1080.88 L1797.46,1080.88" fill="none" stroke="#687b80" stroke-width="1.2"/><path d="M1609.04,1096.88 L1797.46,1096.88" fill="none" stroke="#687b80" stroke-width="1.2"/><path d="M1609.04,1112.88 L1797.46,1112.88" fill="none" stroke="#687b80" stroke-width="1.2"/><path d="M1609.04,1128.88 L1797.46,1128.88" fill="none" stroke="#687b80" stroke-width="1.2"/><path d="M1609.04,1144.88 L1797.46,1144.88" fill="none" stroke="#687b80" stroke-width="1.2"/><text x="1572.5" y="1225.09" font-size="23" fill="#223740" font-weight="bold" text-anchor="start">STAIR</text><rect x="1560.5" y="577" width="285.5" height="356.875" fill="#e7e9e5" stroke="#223740" stroke-width="2"/><text x="1572.5" y="819.675" font-size="23" fill="#223740" font-weight="bold" text-anchor="start">LIFT / SERVICE</text><rect x="418.5" y="1076.62" width="1142" height="142.75" fill="#e7e9e5" stroke="none" stroke-width="2"/><text x="989.5" y="1155" font-size="23" fill="#687b80" font-weight="normal" text-anchor="middle">SHARED CIRCULATION</text><rect x="418.5" y="1219.38" width="190.333" height="499.625" fill="#e5ece5" stroke="#223740" stroke-width="2.5"/><text x="513.667" y="1287.38" font-size="23" fill="#223740" font-weight="bold" text-anchor="middle">GUEST</text><text x="513.667" y="1314.38" font-size="23" fill="#223740" font-weight="bold" text-anchor="middle">ROOM 1</text><text x="513.667" y="1341.38" font-size="19" fill="#687b80" font-weight="normal" text-anchor="middle">SINGLE ROOM</text><rect x="471.527" y="1384.38" width="35.1167" height="97.1728" fill="white" stroke="#687b80" stroke-width="1.5"/><rect x="475.527" y="1388.38" width="27.1167" height="18.4628" fill="#f7f6f1" stroke="#687b80" stroke-width="1"/><rect x="521.693" y="1571.45" width="42.14" height="102.553" fill="#e7e9e5" stroke="#687b80" stroke-width="1.3"/><text x="542.763" y="1622.72" font-size="16" fill="#687b80" font-weight="normal" text-anchor="middle">BATH</text><path d="M521.693,1627.85 L521.693,1663.74" fill="none" stroke="white" stroke-width="5"/><rect x="608.833" y="1219.38" width="190.333" height="499.625" fill="#e5ece5" stroke="#223740" stroke-width="2.5"/><text x="704" y="1287.38" font-size="23" fill="#223740" font-weight="bold" text-anchor="middle">GUEST</text><text x="704" y="1314.38" font-size="23" fill="#223740" font-weight="bold" text-anchor="middle">ROOM 2</text><text x="704" y="1341.38" font-size="19" fill="#687b80" font-weight="normal" text-anchor="middle">SINGLE ROOM</text><rect x="661.86" y="1384.38" width="35.1167" height="97.1728" fill="white" stroke="#687b80" stroke-width="1.5"/><rect x="665.86" y="1388.38" width="27.1167" height="18.4628" fill="#f7f6f1" stroke="#687b80" stroke-width="1"/><rect x="712.027" y="1571.45" width="42.14" height="102.553" fill="#e7e9e5" stroke="#687b80" stroke-width="1.3"/><text x="733.097" y="1622.72" font-size="16" fill="#687b80" font-weight="normal" text-anchor="middle">BATH</text><path d="M712.027,1627.85 L712.027,1663.74" fill="none" stroke="white" stroke-width="5"/><rect x="799.167" y="1219.38" width="190.333" height="499.625" fill="#e5ece5" stroke="#223740" stroke-width="2.5"/><text x="894.333" y="1287.38" font-size="23" fill="#223740" font-weight="bold" text-anchor="middle">GUEST</text><text x="894.333" y="1314.38" font-size="23" fill="#223740" font-weight="bold" text-anchor="middle">ROOM 3</text><text x="894.333" y="1341.38" font-size="19" fill="#687b80" font-weight="normal" text-anchor="middle">SINGLE ROOM</text><rect x="852.193" y="1384.38" width="35.1167" height="97.1728" fill="white" stroke="#687b80" stroke-width="1.5"/><rect x="856.193" y="1388.38" width="27.1167" height="18.4628" fill="#f7f6f1" stroke="#687b80" stroke-width="1"/><rect x="902.36" y="1571.45" width="42.14" height="102.553" fill="#e7e9e5" stroke="#687b80" stroke-width="1.3"/><text x="923.43" y="1622.72" font-size="16" fill="#687b80" font-weight="normal" text-anchor="middle">BATH</text><path d="M902.36,1627.85 L902.36,1663.74" fill="none" stroke="white" stroke-width="5"/><rect x="989.5" y="1219.38" width="190.333" height="499.625" fill="#e5ece5" stroke="#223740" stroke-width="2.5"/><text x="1084.67" y="1287.38" font-size="23" fill="#223740" font-weight="bold" text-anchor="middle">GUEST</text><text x="1084.67" y="1314.38" font-size="23" fill="#223740" font-weight="bold" text-anchor="middle">ROOM 4</text><text x="1084.67" y="1341.38" font-size="19" fill="#687b80" font-weight="normal" text-anchor="middle">SINGLE ROOM</text><rect x="1042.53" y="1384.38" width="35.1167" height="97.1728" fill="white" stroke="#687b80" stroke-width="1.5"/><rect x="1046.53" y="1388.38" width="27.1167" height="18.4628" fill="#f7f6f1" stroke="#687b80" stroke-width="1"/><rect x="1092.69" y="1571.45" width="42.14" height="102.553" fill="#e7e9e5" stroke="#687b80" stroke-width="1.3"/><text x="1113.76" y="1622.72" font-size="16" fill="#687b80" font-weight="normal" text-anchor="middle">BATH</text><path d="M1092.69,1627.85 L1092.69,1663.74" fill="none" stroke="white" stroke-width="5"/><rect x="1179.83" y="1219.38" width="190.333" height="499.625" fill="#e5ece5" stroke="#223740" stroke-width="2.5"/><text x="1275" y="1287.38" font-size="23" fill="#223740" font-weight="bold" text-anchor="middle">GUEST</text><text x="1275" y="1314.38" font-size="23" fill="#223740" font-weight="bold" text-anchor="middle">ROOM 5</text><text x="1275" y="1341.38" font-size="19" fill="#687b80" font-weight="normal" text-anchor="middle">SINGLE ROOM</text><rect x="1232.86" y="1384.38" width="35.1167" height="97.1728" fill="white" stroke="#687b80" stroke-width="1.5"/><rect x="1236.86" y="1388.38" width="27.1167" height="18.4628" fill="#f7f6f1" stroke="#687b80" stroke-width="1"/><rect x="1283.03" y="1571.45" width="42.14" height="102.553" fill="#e7e9e5" stroke="#687b80" stroke-width="1.3"/><text x="1304.1" y="1622.72" font-size="16" fill="#687b80" font-weight="normal" text-anchor="middle">BATH</text><path d="M1283.03,1627.85 L1283.03,1663.74" fill="none" stroke="white" stroke-width="5"/><rect x="1370.17" y="1219.38" width="190.333" height="499.625" fill="#e5ece5" stroke="#223740" stroke-width="2.5"/><text x="1465.33" y="1287.38" font-size="23" fill="#223740" font-weight="bold" text-anchor="middle">GUEST</text><text x="1465.33" y="1314.38" font-size="23" fill="#223740" font-weight="bold" text-anchor="middle">ROOM 6</text><text x="1465.33" y="1341.38" font-size="19" fill="#687b80" font-weight="normal" text-anchor="middle">SINGLE ROOM</text><rect x="1423.19" y="1384.38" width="35.1167" height="97.1728" fill="white" stroke="#687b80" stroke-width="1.5"/><rect x="1427.19" y="1388.38" width="27.1167" height="18.4628" fill="#f7f6f1" stroke="#687b80" stroke-width="1"/><rect x="1473.36" y="1571.45" width="42.14" height="102.553" fill="#e7e9e5" stroke="#687b80" stroke-width="1.3"/><text x="1494.43" y="1622.72" font-size="16" fill="#687b80" font-weight="normal" text-anchor="middle">BATH</text><path d="M1473.36,1627.85 L1473.36,1663.74" fill="none" stroke="white" stroke-width="5"/><rect x="418.5" y="577" width="571" height="499.625" fill="#e5ece5" stroke="#223740" stroke-width="2.5"/><text x="704" y="650" font-size="28" fill="#223740" font-weight="bold" text-anchor="middle">GUEST LOUNGE AND QUIET WORK</text><text x="704" y="682" font-size="24" fill="#687b80" font-weight="normal" text-anchor="middle">4 TOUCHDOWN DESKS</text><rect x="533.75" y="848.812" width="100" height="52" fill="white" stroke="#687b80" stroke-width="1.4"/><path d="M583.75,848.812 L583.75,900.812" fill="none" stroke="#687b80" stroke-width="1"/><rect x="549.75" y="909.812" width="18" height="18" fill="#f7f6f1" stroke="#687b80" stroke-width="1"/><path d="M551.55,885.212 L565.95,885.212" fill="none" stroke="#687b80" stroke-width="1.4"/><rect x="599.75" y="909.812" width="18" height="18" fill="#f7f6f1" stroke="#687b80" stroke-width="1"/><path d="M601.55,885.212 L615.95,885.212" fill="none" stroke="#687b80" stroke-width="1.4"/><rect x="774.25" y="848.812" width="100" height="52" fill="white" stroke="#687b80" stroke-width="1.4"/><path d="M824.25,848.812 L824.25,900.812" fill="none" stroke="#687b80" stroke-width="1"/><rect x="790.25" y="909.812" width="18" height="18" fill="#f7f6f1" stroke="#687b80" stroke-width="1"/><path d="M792.05,885.212 L806.45,885.212" fill="none" stroke="#687b80" stroke-width="1.4"/><rect x="840.25" y="909.812" width="18" height="18" fill="#f7f6f1" stroke="#687b80" stroke-width="1"/><path d="M842.05,885.212 L856.45,885.212" fill="none" stroke="#687b80" stroke-width="1.4"/><rect x="989.5" y="577" width="571" height="499.625" fill="#e5ece5" stroke="#223740" stroke-width="2.5"/><text x="1275" y="650" font-size="28" fill="#223740" font-weight="bold" text-anchor="middle">LINEN, LAUNDRY AND GUEST</text><text x="1275" y="682" font-size="28" fill="#223740" font-weight="bold" text-anchor="middle">SUPPORT</text><path d="M433.727,1719 L485.117,1719" fill="none" stroke="#3f7088" stroke-width="5"/><path d="M523.183,1719 L580.283,1719" fill="none" stroke="#3f7088" stroke-width="5"/><path d="M624.06,1719 L675.45,1719" fill="none" stroke="#3f7088" stroke-width="5"/><path d="M713.517,1719 L770.617,1719" fill="none" stroke="#3f7088" stroke-width="5"/><path d="M814.393,1719 L865.783,1719" fill="none" stroke="#3f7088" stroke-width="5"/><path d="M903.85,1719 L960.95,1719" fill="none" stroke="#3f7088" stroke-width="5"/><path d="M1004.73,1719 L1056.12,1719" fill="none" stroke="#3f7088" stroke-width="5"/><path d="M1094.18,1719 L1151.28,1719" fill="none" stroke="#3f7088" stroke-width="5"/><path d="M1195.06,1719 L1246.45,1719" fill="none" stroke="#3f7088" stroke-width="5"/><path d="M1284.52,1719 L1341.62,1719" fill="none" stroke="#3f7088" stroke-width="5"/><path d="M1385.39,1719 L1436.78,1719" fill="none" stroke="#3f7088" stroke-width="5"/><path d="M1474.85,1719 L1531.95,1719" fill="none" stroke="#3f7088" stroke-width="5"/><path d="M464.18,577 L618.35,577" fill="none" stroke="#3f7088" stroke-width="5"/><path d="M732.55,577 L903.85,577" fill="none" stroke="#3f7088" stroke-width="5"/><path d="M1035.18,577 L1189.35,577" fill="none" stroke="#3f7088" stroke-width="5"/><path d="M1303.55,577 L1474.85,577" fill="none" stroke="#3f7088" stroke-width="5"/><path d="M487.496,1219.38 L539.838,1219.38" fill="none" stroke="#f7f6f1" stroke-width="8"/><path d="M487.496,1219.38 L487.496,1271.72" fill="none" stroke="#687b80" stroke-width="1.5"/><path d="M539.8375000000001,1219.375 A52.341666666666676,52.341666666666676 0 0 1 487.4958333333334,1271.7166666666667" fill="none" stroke="#687b80" stroke-width="1.5"/><path d="M677.829,1219.38 L730.171,1219.38" fill="none" stroke="#f7f6f1" stroke-width="8"/><path d="M677.829,1219.38 L677.829,1271.72" fill="none" stroke="#687b80" stroke-width="1.5"/><path d="M730.1708333333333,1219.375 A52.341666666666676,52.341666666666676 0 0 1 677.8291666666667,1271.7166666666667" fill="none" stroke="#687b80" stroke-width="1.5"/><path d="M868.163,1219.38 L920.504,1219.38" fill="none" stroke="#f7f6f1" stroke-width="8"/><path d="M868.163,1219.38 L868.163,1271.72" fill="none" stroke="#687b80" stroke-width="1.5"/><path d="M920.5041666666667,1219.375 A52.341666666666676,52.341666666666676 0 0 1 868.1625,1271.7166666666667" fill="none" stroke="#687b80" stroke-width="1.5"/><path d="M1058.5,1219.38 L1110.84,1219.38" fill="none" stroke="#f7f6f1" stroke-width="8"/><path d="M1058.5,1219.38 L1058.5,1271.72" fill="none" stroke="#687b80" stroke-width="1.5"/><path d="M1110.8375,1219.375 A52.341666666666676,52.341666666666676 0 0 1 1058.4958333333334,1271.7166666666667" fill="none" stroke="#687b80" stroke-width="1.5"/><path d="M1248.83,1219.38 L1301.17,1219.38" fill="none" stroke="#f7f6f1" stroke-width="8"/><path d="M1248.83,1219.38 L1248.83,1271.72" fill="none" stroke="#687b80" stroke-width="1.5"/><path d="M1301.1708333333333,1219.375 A52.341666666666676,52.341666666666676 0 0 1 1248.8291666666667,1271.7166666666667" fill="none" stroke="#687b80" stroke-width="1.5"/><path d="M1439.16,1219.38 L1491.5,1219.38" fill="none" stroke="#f7f6f1" stroke-width="8"/><path d="M1439.16,1219.38 L1439.16,1271.72" fill="none" stroke="#687b80" stroke-width="1.5"/><path d="M1491.5041666666668,1219.375 A52.341666666666676,52.341666666666676 0 0 1 1439.1625000000001,1271.7166666666667" fill="none" stroke="#687b80" stroke-width="1.5"/><path d="M677.829,1076.62 L730.171,1076.62" fill="none" stroke="#f7f6f1" stroke-width="8"/><path d="M677.829,1076.62 L677.829,1024.28" fill="none" stroke="#687b80" stroke-width="1.5"/><path d="M730.1708333333333,1076.625 A52.341666666666676,52.341666666666676 0 0 0 677.8291666666667,1024.2833333333333" fill="none" stroke="#687b80" stroke-width="1.5"/><path d="M1248.83,1076.62 L1301.17,1076.62" fill="none" stroke="#f7f6f1" stroke-width="8"/><path d="M1248.83,1076.62 L1248.83,1024.28" fill="none" stroke="#687b80" stroke-width="1.5"/><path d="M1301.1708333333333,1076.625 A52.341666666666676,52.341666666666676 0 0 0 1248.8291666666667,1024.2833333333333" fill="none" stroke="#687b80" stroke-width="1.5"/><path d="M418.5,1119.45 L418.5,1176.55" fill="none" stroke="#f7f6f1" stroke-width="8"/><path d="M418.5,1119.45 L361.4,1119.45" fill="none" stroke="#687b80" stroke-width="1.5"/><path d="M418.5,1176.55 A57.1,57.1 0 0 1 361.4,1119.45" fill="none" stroke="#687b80" stroke-width="1.5"/><path d="M1560.5,1119.45 L1560.5,1176.55" fill="none" stroke="#f7f6f1" stroke-width="8"/><path d="M1560.5,1119.45 L1617.6,1119.45" fill="none" stroke="#687b80" stroke-width="1.5"/><path d="M1560.5,1176.55 A57.1,57.1 0 0 0 1617.6,1119.45" fill="none" stroke="#687b80" stroke-width="1.5"/><path d="M249.579,1362.12 L301.921,1362.12" fill="none" stroke="#f7f6f1" stroke-width="8"/><path d="M249.579,1362.12 L249.579,1414.47" fill="none" stroke="#687b80" stroke-width="1.5"/><path d="M301.92083333333335,1362.125 A52.341666666666676,52.341666666666676 0 0 1 249.57916666666665,1414.4666666666667" fill="none" stroke="#687b80" stroke-width="1.5"/><path d="M249.579,933.875 L301.921,933.875" fill="none" stroke="#f7f6f1" stroke-width="8"/><path d="M249.579,933.875 L249.579,881.533" fill="none" stroke="#687b80" stroke-width="1.5"/><path d="M301.92083333333335,933.875 A52.341666666666676,52.341666666666676 0 0 0 249.57916666666665,881.5333333333333" fill="none" stroke="#687b80" stroke-width="1.5"/><path d="M1677.08,1362.12 L1729.42,1362.12" fill="none" stroke="#f7f6f1" stroke-width="8"/><path d="M1677.08,1362.12 L1677.08,1414.47" fill="none" stroke="#687b80" stroke-width="1.5"/><path d="M1729.4208333333333,1362.125 A52.341666666666676,52.341666666666676 0 0 1 1677.0791666666667,1414.4666666666667" fill="none" stroke="#687b80" stroke-width="1.5"/><path d="M1677.08,933.875 L1729.42,933.875" fill="none" stroke="#f7f6f1" stroke-width="8"/><path d="M1677.08,933.875 L1677.08,881.533" fill="none" stroke="#687b80" stroke-width="1.5"/><path d="M1729.4208333333333,933.875 A52.341666666666676,52.341666666666676 0 0 0 1677.0791666666667,881.5333333333333" fill="none" stroke="#687b80" stroke-width="1.5"/><path d="M133,505 L1846,505" fill="none" stroke="#687b80" stroke-width="1"/><path d="M133,505 L133,567" fill="none" stroke="#a2b0af" stroke-width="1"/><text x="133" y="463" font-size="20" fill="#687b80" font-weight="normal" text-anchor="middle">0</text><path d="M347.125,505 L347.125,567" fill="none" stroke="#a2b0af" stroke-width="1"/><text x="347.125" y="463" font-size="20" fill="#687b80" font-weight="normal" text-anchor="middle">15</text><path d="M561.25,505 L561.25,567" fill="none" stroke="#a2b0af" stroke-width="1"/><text x="561.25" y="463" font-size="20" fill="#687b80" font-weight="normal" text-anchor="middle">30</text><path d="M775.375,505 L775.375,567" fill="none" stroke="#a2b0af" stroke-width="1"/><text x="775.375" y="463" font-size="20" fill="#687b80" font-weight="normal" text-anchor="middle">44</text><path d="M989.5,505 L989.5,567" fill="none" stroke="#a2b0af" stroke-width="1"/><text x="989.5" y="463" font-size="20" fill="#687b80" font-weight="normal" text-anchor="middle">59</text><path d="M1203.62,505 L1203.62,567" fill="none" stroke="#a2b0af" stroke-width="1"/><text x="1203.62" y="463" font-size="20" fill="#687b80" font-weight="normal" text-anchor="middle">74</text><path d="M1417.75,505 L1417.75,567" fill="none" stroke="#a2b0af" stroke-width="1"/><text x="1417.75" y="463" font-size="20" fill="#687b80" font-weight="normal" text-anchor="middle">89</text><path d="M1631.88,505 L1631.88,567" fill="none" stroke="#a2b0af" stroke-width="1"/><text x="1631.88" y="463" font-size="20" fill="#687b80" font-weight="normal" text-anchor="middle">103</text><path d="M1846,505 L1846,567" fill="none" stroke="#a2b0af" stroke-width="1"/><text x="1846" y="463" font-size="20" fill="#687b80" font-weight="normal" text-anchor="middle">118</text><text x="989.5" y="417" font-size="27" fill="#223740" font-weight="bold" text-anchor="middle">118′ OVERALL</text><path d="M73,577 L73,1719" fill="none" stroke="#687b80" stroke-width="1.5"/><text x="53" y="1148.0" transform="rotate(-90 53 1148.0)" text-anchor="middle" font-size="22" fill="#687b80">79′</text><text x="2375" y="473" font-size="30" fill="#223740" font-weight="bold" text-anchor="middle">N</text><path d="M2375,508 l-14,45 l14,-13 l14,13 Z" fill="#223740" stroke="none" stroke-width="2"/><path d="M2483,396 L3133,396" fill="none" stroke="#a5b4b2" stroke-width="2"/><text x="2483" y="456" font-size="31" fill="#223740" font-weight="bold" text-anchor="start">THIS FLOOR</text><text x="2483" y="550" font-size="62" fill="#223740" font-weight="bold" text-anchor="start">6</text><text x="2483" y="605" font-size="24" fill="#687b80" font-weight="normal" text-anchor="start">RESIDENTIAL ROOMS</text><text x="2483" y="710" font-size="62" fill="#223740" font-weight="bold" text-anchor="start">9,300</text><text x="2483" y="765" font-size="24" fill="#687b80" font-weight="normal" text-anchor="start">GROSS SQUARE FEET</text><path d="M2483,840 L3133,840" fill="none" stroke="#a5b4b2" stroke-width="2"/><text x="2483" y="898" font-size="28" fill="#223740" font-weight="bold" text-anchor="start">PEOPLE / CAPACITY</text><text x="2483" y="948" font-size="27" fill="#223740" font-weight="normal" text-anchor="start">Planned concurrent load: 6. Fitted</text><text x="2483" y="988.5" font-size="27" fill="#223740" font-weight="normal" text-anchor="start">workplaces, meeting seats, learners and</text><text x="2483" y="1029" font-size="27" fill="#223740" font-weight="normal" text-anchor="start">residents are separate measures; actual</text><text x="2483" y="1069.5" font-size="27" fill="#223740" font-weight="normal" text-anchor="start">occupancy remains unestablished.</text><text x="2483" y="1158" font-size="28" fill="#223740" font-weight="bold" text-anchor="start">COORDINATED BUILDING</text><text x="2483" y="1208" font-size="27" fill="#223740" font-weight="normal" text-anchor="start">2 levels use the same footprint and</text><text x="2483" y="1248.5" font-size="27" fill="#223740" font-weight="normal" text-anchor="start">aligned service/core positions. Rooms</text><text x="2483" y="1289" font-size="27" fill="#223740" font-weight="normal" text-anchor="start">are local concept allocations, not an</text><text x="2483" y="1329.5" font-size="27" fill="#223740" font-weight="normal" text-anchor="start">as-built survey.</text><text x="2483" y="1418" font-size="28" fill="#223740" font-weight="bold" text-anchor="start">ACCESS AND STATUS</text><text x="2483" y="1468" font-size="27" fill="#223740" font-weight="normal" text-anchor="start">Every guest room opens independently to</text><text x="2483" y="1508.5" font-size="27" fill="#223740" font-weight="normal" text-anchor="start">the same 3 m clear central corridor,</text><text x="2483" y="1549" font-size="27" fill="#223740" font-weight="normal" text-anchor="start">which connects protected end stairs in</text><text x="2483" y="1589.5" font-size="27" fill="#223740" font-weight="normal" text-anchor="start">both directions. No room exits through</text><text x="2483" y="1630" font-size="27" fill="#223740" font-weight="normal" text-anchor="start">another room. West accessible lift</text><text x="2483" y="1670.5" font-size="27" fill="#223740" font-weight="normal" text-anchor="start">provides the concept step-free route;</text><text x="2483" y="1711" font-size="27" fill="#223740" font-weight="normal" text-anchor="start">the two end wet/service cores remain</text><text x="2483" y="1751.5" font-size="27" fill="#223740" font-weight="normal" text-anchor="start">aligned with Level 1.</text><text x="137" y="1828" font-size="30" fill="#3f7088" font-weight="bold" text-anchor="start">01</text><text x="209" y="1828" font-size="29" fill="#223740" font-weight="bold" text-anchor="start">COORDINATED ACCESS</text><text x="209" y="1874" font-size="27" fill="#687b80" font-weight="normal" text-anchor="start">Room entries connect to shared or controlled</text><text x="209" y="1914.5" font-size="27" fill="#687b80" font-weight="normal" text-anchor="start">circulation; vertical cores are coordinated</text><text x="209" y="1955" font-size="27" fill="#687b80" font-weight="normal" text-anchor="start">across the building.</text><text x="1317" y="1828" font-size="30" fill="#3f7088" font-weight="bold" text-anchor="start">02</text><text x="1389" y="1828" font-size="29" fill="#223740" font-weight="bold" text-anchor="start">PLANNING BOUNDARY</text><text x="1389" y="1874" font-size="27" fill="#687b80" font-weight="normal" text-anchor="start">Local concept geometry preserves current</text><text x="1389" y="1914.5" font-size="27" fill="#687b80" font-weight="normal" text-anchor="start">functions. Occupancy, construction, engineering</text><text x="1389" y="1955" font-size="27" fill="#687b80" font-weight="normal" text-anchor="start">and exact parcel evidence remain separately</text><text x="1389" y="1995.5" font-size="27" fill="#687b80" font-weight="normal" text-anchor="start">governed.</text><rect x="162" y="2050" width="101.524" height="14" fill="#223740" stroke="#223740" stroke-width="1.5"/><rect x="263.524" y="2050" width="101.524" height="14" fill="#f7f6f1" stroke="#223740" stroke-width="1.5"/><rect x="365.048" y="2050" width="101.524" height="14" fill="#223740" stroke="#223740" stroke-width="1.5"/><rect x="466.571" y="2050" width="101.524" height="14" fill="#f7f6f1" stroke="#223740" stroke-width="1.5"/><text x="162" y="2094" font-size="21" fill="#223740" font-weight="normal" text-anchor="middle">0</text><text x="365.048" y="2094" font-size="21" fill="#223740" font-weight="normal" text-anchor="middle">14</text><text x="568.095" y="2094" font-size="21" fill="#223740" font-weight="normal" text-anchor="middle">28</text><text x="598.095" y="2066" font-size="21" fill="#687b80" font-weight="normal" text-anchor="start">FEET</text><text x="1010" y="2090" font-size="23" fill="#687b80" font-weight="normal" text-anchor="start">Blue: operational work  /  Sage: secondary program  /  Sand: shared and visitor areas</text></svg>
