<svg xmlns="http://www.w3.org/2000/svg" width="1600" height="1000" viewBox="0 0 1600 1000"><style>text{font-family:DejaVu Sans,sans-serif;fill:#172e40} .muted{fill:#637078}</style><rect x="0" y="0" width="1600" height="1000" fill="#faf9f5" stroke="none" stroke-width="1"/><rect x="0" y="0" width="1600" height="95" fill="#172e40" stroke="none" stroke-width="1"/><text x="45" y="47" font-size="25" font-weight="bold" text-anchor="start" style="fill:white">SABLE HARBOR</text><text x="1555" y="43" font-size="19" font-weight="normal" text-anchor="end" style="fill:white">SH-MAP-CRD-020</text><text x="45" y="135" font-size="32" font-weight="bold" text-anchor="start" style="fill:#172e40">Bedford · recovery development center · master plan</text><text x="45" y="171" font-size="18" font-weight="normal" text-anchor="start" style="fill:#172e40">Concept spatial program; current geographic context remains separately sourced</text><text x="45" y="206" font-size="16" font-weight="normal" text-anchor="start" style="fill:#922d35">PROPOSED MODELLED PROGRAM</text><path d="M45,888 L1555,888" fill="none" stroke="#172e40" stroke-width="1"/><text x="45" y="919" font-size="16" font-weight="normal" text-anchor="start" style="fill:#172e40">11 SEP 2026  |  Rev 0.1.0  |  Concept design; not an occupied-building or construction record</text><text x="45" y="948" font-size="15" font-weight="normal" text-anchor="start" style="fill:#172e40">Local metric frame; reference north ↑  |  Not surveyed; do not scale the exported page</text><text x="45" y="975" font-size="13" font-weight="normal" text-anchor="start" style="fill:#172e40">Source: geospatial/facilities/source/research_campuses.json</text><rect x="70" y="245" width="534.452" height="605" fill="#f0f1e9" stroke="#24716d" stroke-width="1.4" stroke-dasharray="7 5"/><rect x="123.445" y="785.866" width="128.269" height="32.0671" fill="#eee6d6" stroke="#aab3ad" stroke-width="1.4"/><rect x="273.092" y="719.594" width="74.8233" height="55.583" fill="#e0e1de" stroke="#aab3ad" stroke-width="1.4"/><rect x="144.823" y="623.392" width="192.403" height="47.0318" fill="#d8e2d0" stroke="#aab3ad" stroke-width="1.4"/><rect x="294.47" y="486.572" width="53.4452" height="85.5124" fill="#eee6d6" stroke="#aab3ad" stroke-width="1.4"/><rect x="454.806" y="486.572" width="74.8233" height="85.5124" fill="#f2ede3" stroke="#aab3ad" stroke-width="1.4" stroke-dasharray="5 4"/><rect x="144.823" y="336.926" width="299.293" height="96.2014" fill="#f2ede3" stroke="#aab3ad" stroke-width="1.4" stroke-dasharray="5 4"/><rect x="134.134" y="277.067" width="384.806" height="38.4806" fill="#d8e2d0" stroke="#aab3ad" stroke-width="1.4"/><path d="M102.067,817.933 L572.385,817.933" fill="none" stroke="#9eaaa7" stroke-width="14"/><path d="M572.385,817.933 L572.385,277.067" fill="none" stroke="#9eaaa7" stroke-width="14"/><path d="M572.385,277.067 L102.067,277.067" fill="none" stroke="#9eaaa7" stroke-width="14"/><path d="M102.067,277.067 L102.067,817.933" fill="none" stroke="#9eaaa7" stroke-width="14"/><path d="M176.89,850 L176.89,753.799" fill="none" stroke="#ae9d7b" stroke-width="8"/><path d="M223.922,732.42 L262.403,732.42" fill="none" stroke="#24716d" stroke-width="6"/><path d="M262.403,732.42 L262.403,597.739" fill="none" stroke="#24716d" stroke-width="6"/><path d="M262.403,597.739 L198.269,597.739" fill="none" stroke="#24716d" stroke-width="6"/><path d="M198.269,597.739 L198.269,572.085" fill="none" stroke="#24716d" stroke-width="6"/><path d="M604.452,646.908 L497.562,646.908" fill="none" stroke="#637078" stroke-width="6"/><path d="M497.562,646.908 L465.495,646.908" fill="none" stroke="#637078" stroke-width="6"/><path d="M465.495,646.908 L465.495,685.389" fill="none" stroke="#637078" stroke-width="6"/><path d="M465.495,685.389 L446.254,685.389" fill="none" stroke="#637078" stroke-width="6"/><rect x="125.445" y="787.866" width="124.269" height="21" fill="#f0f1e9" stroke="none" stroke-width="1"/><text x="128.445" y="800.866" font-size="11" font-weight="normal" text-anchor="start" style="fill:#172e40">Arrival / gate</text><rect x="275.092" y="721.594" width="70.8233" height="36" fill="#f0f1e9" stroke="none" stroke-width="1"/><text x="278.092" y="734.594" font-size="11" font-weight="normal" text-anchor="start" style="fill:#172e40">Parking ·</text><text x="278.092" y="749.594" font-size="11" font-weight="normal" text-anchor="start" style="fill:#172e40">26 spaces</text><rect x="146.823" y="625.392" width="188.403" height="21" fill="#f0f1e9" stroke="none" stroke-width="1"/><text x="149.823" y="638.392" font-size="11" font-weight="normal" text-anchor="start" style="fill:#172e40">Staff pedestrian court</text><rect x="296.47" y="488.572" width="49.4452" height="66" fill="#f0f1e9" stroke="none" stroke-width="1"/><text x="299.47" y="501.572" font-size="11" font-weight="normal" text-anchor="start" style="fill:#172e40">Controlled</text><text x="299.47" y="516.572" font-size="11" font-weight="normal" text-anchor="start" style="fill:#172e40">material</text><text x="299.47" y="531.572" font-size="11" font-weight="normal" text-anchor="start" style="fill:#172e40">transfer</text><text x="299.47" y="546.572" font-size="11" font-weight="normal" text-anchor="start" style="fill:#172e40">yard</text><rect x="456.806" y="488.572" width="70.8233" height="81" fill="#f0f1e9" stroke="none" stroke-width="1"/><text x="459.806" y="501.572" font-size="11" font-weight="normal" text-anchor="start" style="fill:#172e40">Service</text><text x="459.806" y="516.572" font-size="11" font-weight="normal" text-anchor="start" style="fill:#172e40">utilities</text><text x="459.806" y="531.572" font-size="11" font-weight="normal" text-anchor="start" style="fill:#172e40">and</text><text x="459.806" y="546.572" font-size="11" font-weight="normal" text-anchor="start" style="fill:#172e40">containment</text><text x="459.806" y="561.572" font-size="11" font-weight="normal" text-anchor="start" style="fill:#172e40">reserve</text><rect x="146.823" y="338.926" width="295.293" height="21" fill="#f0f1e9" stroke="none" stroke-width="1"/><text x="149.823" y="351.926" font-size="11" font-weight="normal" text-anchor="start" style="fill:#172e40">Gated deployment expansion reserve</text><rect x="136.134" y="279.067" width="380.806" height="21" fill="#f0f1e9" stroke="none" stroke-width="1"/><text x="139.134" y="292.067" font-size="11" font-weight="normal" text-anchor="start" style="fill:#172e40">Stormwater and brownfield buffer</text><rect x="144.823" y="702.491" width="76.9611" height="51.3074" fill="#172e40" stroke="#172e40" stroke-width="1.4"/><rect x="147.099" y="698.18" width="35" height="20" fill="#172e40" stroke="none" stroke-width="1"/><text x="149.099" y="713.18" font-size="15" font-weight="bold" text-anchor="start" style="fill:white">B01</text><path d="M144.823,724.145 L144.823,732.145" fill="none" stroke="white" stroke-width="3"/><path d="M221.784,724.145 L221.784,732.145" fill="none" stroke="white" stroke-width="3"/><rect x="144.823" y="507.951" width="102.615" height="64.1343" fill="#172e40" stroke="#172e40" stroke-width="1.4"/><rect x="147.099" y="503.64" width="35" height="20" fill="#172e40" stroke="none" stroke-width="1"/><text x="149.099" y="518.64" font-size="15" font-weight="bold" text-anchor="start" style="fill:white">B02</text><path d="M144.823,536.018 L144.823,544.018" fill="none" stroke="white" stroke-width="3"/><path d="M247.438,536.018 L247.438,544.018" fill="none" stroke="white" stroke-width="3"/><rect x="369.293" y="520.777" width="76.9611" height="51.3074" fill="#172e40" stroke="#172e40" stroke-width="1.4"/><rect x="371.569" y="516.466" width="35" height="20" fill="#172e40" stroke="none" stroke-width="1"/><text x="373.569" y="531.466" font-size="15" font-weight="bold" text-anchor="start" style="fill:white">B03</text><path d="M369.293,542.431 L369.293,550.431" fill="none" stroke="white" stroke-width="3"/><path d="M446.254,542.431 L446.254,550.431" fill="none" stroke="white" stroke-width="3"/><rect x="369.293" y="659.735" width="76.9611" height="51.3074" fill="#172e40" stroke="#172e40" stroke-width="1.4"/><rect x="371.569" y="655.424" width="35" height="20" fill="#172e40" stroke="none" stroke-width="1"/><text x="373.569" y="670.424" font-size="15" font-weight="bold" text-anchor="start" style="fill:white">B04</text><path d="M369.293,681.389 L369.293,689.389" fill="none" stroke="white" stroke-width="3"/><path d="M446.254,681.389 L446.254,689.389" fill="none" stroke="white" stroke-width="3"/><path d="M845,305 L845,255" fill="none" stroke="#172e40" stroke-width="3"/><text x="845" y="244" font-size="18" font-weight="normal" text-anchor="middle" style="fill:#172e40">N</text><path d="M75,862 L181.89,862" fill="none" stroke="#172e40" stroke-width="4"/><text x="75" y="883" font-size="13" font-weight="normal" text-anchor="start" style="fill:#172e40">0</text><text x="187.89" y="883" font-size="13" font-weight="normal" text-anchor="start" style="fill:#172e40">50 m</text><text x="950" y="265" font-size="16" font-weight="bold" text-anchor="start" style="fill:#172e40">SITE BASIS</text><text x="950" y="288" font-size="14" font-weight="normal" text-anchor="start" style="fill:#172e40">Illustrative local metric frame; x east/y north. Area selects</text><text x="950" y="308" font-size="14" font-weight="normal" text-anchor="start" style="fill:#172e40">a midpoint within accepted acreage range; no parcel,</text><text x="950" y="328" font-size="14" font-weight="normal" text-anchor="start" style="fill:#172e40">coordinate transform, acquisition or current building</text><text x="950" y="348" font-size="14" font-weight="normal" text-anchor="start" style="fill:#172e40">configuration claimed.</text><text x="950" y="386" font-size="16" font-weight="bold" text-anchor="start" style="fill:#172e40">PROGRAM</text><text x="950" y="409" font-size="14" font-weight="normal" text-anchor="start" style="fill:#172e40">Known operating functions; schematic fit-out only.</text><text x="950" y="447" font-size="16" font-weight="bold" text-anchor="start" style="fill:#172e40">OWNERSHIP AND TIME</text><text x="950" y="470" font-size="14" font-weight="normal" text-anchor="start" style="fill:#172e40">UNESTABLISHED. Exact occupancy and construction dates remain</text><text x="950" y="490" font-size="14" font-weight="normal" text-anchor="start" style="fill:#172e40">unestablished.</text><text x="950" y="528" font-size="16" font-weight="bold" text-anchor="start" style="fill:#172e40">DEPENDENCIES</text><text x="950" y="551" font-size="14" font-weight="normal" text-anchor="start" style="fill:#172e40">Local geometry does not relocate industrial anchors or create</text><text x="950" y="571" font-size="14" font-weight="normal" text-anchor="start" style="fill:#172e40">installed process equipment, transport rights or host</text><text x="950" y="591" font-size="14" font-weight="normal" text-anchor="start" style="fill:#172e40">ownership.</text><text x="950" y="629" font-size="16" font-weight="bold" text-anchor="start" style="fill:#172e40">CAPACITY</text><text x="950" y="652" font-size="14" font-weight="normal" text-anchor="start" style="fill:#172e40">People and seats are separate measures. See population bridge</text><text x="950" y="672" font-size="14" font-weight="normal" text-anchor="start" style="fill:#172e40">and source assumptions.</text><text x="900" y="821" font-size="14" font-weight="bold" text-anchor="start" style="fill:#172e40">ACCESS LEGEND</text><path d="M900,843 L928,843" fill="none" stroke="#9eaaa7" stroke-width="4"/><text x="936" y="847" font-size="12" font-weight="normal" text-anchor="start" style="fill:#172e40">Service / emergency</text><path d="M1200,843 L1228,843" fill="none" stroke="#ae9d7b" stroke-width="4"/><text x="1236" y="847" font-size="12" font-weight="normal" text-anchor="start" style="fill:#172e40">Public arrival</text><path d="M900,867 L928,867" fill="none" stroke="#24716d" stroke-width="4"/><text x="936" y="871" font-size="12" font-weight="normal" text-anchor="start" style="fill:#172e40">Pedestrian</text><path d="M1200,867 L1228,867" fill="none" stroke="#922d35" stroke-width="4"/><text x="1236" y="871" font-size="12" font-weight="normal" text-anchor="start" style="fill:#172e40">Controlled entry</text></svg>
